<svg xmlns="http://www.w3.org/2000/svg" width="500" viewBox="0 0 375 375" height="500" version="1.0"><defs><clipPath id="a"><path d="M11.59 0H115v110H11.59Zm0 0"/></clipPath><clipPath id="b"><path d="M11.59 0H375v323H11.59Zm0 0"/></clipPath></defs><path fill="#fff" d="m374.324 197.508-2.36-.09-18.788 10.402c-1.137 0-2.887.348-4.457 2.446l-3.059 1.66c0-.086 0-.086-.09-.176-.175-.172-.347-.348-.61-.262-.175 0-14.42 1.75-18.003 1.313-4.281-.524-15.293 7.601-18.004 9.789-3.844 3.144-5.418 4.805-7.777 9.176-.785 1.484-2.535 4.105-4.457 6.726l-4.281-4.281a.68.68 0 0 0-.438-.176.672.672 0 0 0-.438.176l-21.585 22.285-23.422-66.855c-1.922-6.203-7.254-13.98-14.243-16.43a15.12 15.12 0 0 0-1.574-.438l-13.894-3.496-10.664-2.097-16.778-9.875h-.09c.09-.086.09-.172.09-.348 0-.262 0-.523-.09-.789 14.946-4.719 29.63-18.352 29.63-18.352l-.7-7.953c-1.226-13.105-5.07-29.101-8.304-40.812-.176-2.793-.61-5.68-1.223-8.649-.262-2.535-.7-4.984-1.313-7.867-1.047-4.719-3.582-9.262-5.855-13.547-2.621-4.718-6.117-9.261-9.961-12.234-1.922-1.484-3.496-2.36-4.805-2.797-5.683-2.707-12.672-5.066-18.879-4.895-2.273 0-4.543.176-6.73.352l.09-.086-1.137.172a78.29 78.29 0 0 0-6.293 1.05c-7.34 1.66-14.07 4.805-20.187 10.138-3.497 3.058-6.118 6.73-8.04 10.75-.175.437-.437.874-.613 1.308-8.3 17.742-16.34 45.098-14.332 86.957l28.227 6.117c-4.367 3.934-11.535 10.489-12.407 11.36l-36.793 13.46c-.613.262-11.624 5.856-13.37 21.673-1.399 13.37-3.934 98.054-3.583 105.132.262 6.38 6.028 26.657 17.301 27.356.7 0 1.313.086 1.922.086 1.137 0 2.273-.086 3.324-.176L83.31 370.28c-.09.176 0 .348.086.524.085.175.261.261.437.351 20.098 3.32 33.469 3.758 44.918 3.758.352 0 .613-.262.613-.527.524-3.582.961-6.64 1.309-9.348 9.879 1.57 23.074 3.145 37.144 3.145 1.485 0 2.97 0 4.457-.086 17.391-.438 31.809-2.45 41.598-4.286.785 6.383 1.223 10.403 1.313 10.575 0 .351.347.613.609.613h.09l.61-.086c20.448-1.75 26.655-2.273 42.034-6.644.176-.086.352-.172.438-.348a.542.542 0 0 0 0-.524l-27.617-59.253c.09-.875.265-4.98.351-6.204l1.047-20.539.613-10.836a573.612 573.612 0 0 1 11.012 23.247c3.672 8.214 10.836 13.546 19.664 14.593 1.047.176 2.098.176 3.145.176 6.293 0 12.148-2.445 15.468-6.555 4.809-6.03 32.774-43.609 33.036-43.957a.669.669 0 0 0-.09-.875l-4.543-4.543-.524-.527c.61-.96 1.047-1.746 1.309-2.098.613-.172 2.797-.347 4.894-.523 4.547-.438 10.227-1.047 12.5-1.746.786-.262 1.31-.438 1.832-.524 1.926-.527 2.274-.699 4.286-2.886.172-.172.261-.348.347-.524 3.758-5.156 3.235-9.527 2.973-10.75.96-1.66 1.137-4.105 1.137-4.804.086-.09.172-.262.261-.524 1.309-.266 7.688-1.574 9.086-3.762 1.313-2.007 5.332-11.007 5.856-13.28l.437-.263 18.18-10.05 1.137-2.184c.172-.176-.09-.613-.438-.7Zm-185.797-39.153Zm8.739 55.844Zm16.43 148.39v-.085.086Zm130.913-144.632c-.437.086-1.398.348-2.273.438-.086-.09-.172-.176-.262-.352l3.32-1.836c-.347.79-.699 1.398-.785 1.75Zm0 0"/><g clip-path="url(#a)"><path fill="#fff" d="M89.164 109.242c.086.086.172.086.262.086.086 0 .172 0 .261-.086.176-.09.348-.176.348-.437l5.856-17.48c12.062-9.79 18.879-24.294 18.879-39.763C114.77 23.16 91.61 0 63.207 0 34.805 0 11.645 23.16 11.645 51.563c0 28.402 23.16 51.558 51.562 51.558 3.672 0 7.34-.433 10.922-1.223Zm0 0"/></g><path fill="#fff" d="M250.75 152.848h115.36c4.718 0 8.562-3.844 8.562-8.563V28.925c0-4.718-3.844-8.562-8.563-8.562H250.75c-4.719 0-8.563 3.844-8.563 8.563v115.36c0 4.718 3.844 8.562 8.563 8.562Zm0 0"/><path fill="#fff" d="M368.207 151.887c.086 0 .172-.086.172-.086 0 .086-.086.086-.172.086Zm0 0c-.262.09-.527.175-.789.175.262 0 .527-.085.789-.175ZM244.02 148.48c-.172-.261-.348-.613-.524-.96.176.347.352.609.524.96Zm129.953-4.109c0 3.496-2.36 6.469-5.504 7.516l.086-10.137v-2.535c0-.086-.086-.086-.086-.176-.79-12.059-9.09-22.894-21.5-26.215a328.41 328.41 0 0 0-10.66-2.797c-.438 1.66-10.926 14.856-24.207 14.856-1.051 0-2.098-.086-3.149-.262-.262-.086-.523-.262-.523-.523l-.785-6.555-2.36 5.855c-.09.176-.265.348-.437.438-.7.172-1.313.172-2.012.172-3.672 0-6.902-2.094-9.613-6.29-2.36-3.671-3.582-7.78-3.758-8.566v-.261c-3.235.699-6.38 1.484-7.953 1.921-3.145.876-5.766 1.575-7.516 2.274h-.086c-.176.086-.351.176-.523.176-3.235 1.484-18.703 9.613-29.54 34.258a7.538 7.538 0 0 1-.699-3.149V29.016a7.833 7.833 0 0 1 7.864-7.868h115.36a7.833 7.833 0 0 1 7.862 7.868Zm-16.34-115.27a3.227 3.227 0 0 0 3.23 3.235c1.836 0 3.235-1.398 3.235-3.234s-1.399-3.235-3.235-3.235c-1.746.09-3.23 1.488-3.23 3.235Zm-10.84 0a3.228 3.228 0 0 0 3.234 3.235c1.836 0 3.235-1.398 3.235-3.234s-1.399-3.235-3.235-3.235c-1.746.09-3.234 1.488-3.234 3.235Zm-10.574 0a3.228 3.228 0 0 0 3.234 3.235c1.836 0 3.235-1.398 3.235-3.234s-1.399-3.235-3.235-3.235a3.228 3.228 0 0 0-3.234 3.235Zm-90.801 121.04c-.523-.438-.961-1.051-1.398-1.575.437.614.875 1.137 1.398 1.575Zm-56.977 7.777c0-.176 0-.262.086-.438h-.175l.437-.523s-.7-9.266-.613-9.176c0 0 17.043-4.547 18.441-27.531.524-9.176-.875-22.984-2.707-35.742-1.137-1.836-1.926-3.844-2.625-5.766-1.484-4.37-2.531-9.004-5.066-12.847.87 3.757 1.746 7.601 1.398 11.449-.09 1.047-.351 2.183-1.05 2.883-.7.785-2.098.96-2.797.175 1.136-4.457.527-9.265-.872-13.632-1.398-4.372-3.671-8.48-5.945-12.5 1.488 7.605 1.75 15.468.613 23.16-.175 1.136-.351 2.273-1.136 3.058-1.047 1.223-2.973 1.399-4.633 1.223-1.66-.176-3.406-.523-4.98.09 2.359-8.653 2.796-17.828 1.398-26.656.176 6.203-.875 12.496-2.973 18.351-.87 2.45-2.008 4.809-3.758 6.64-1.832 1.837-4.367 3.063-6.902 2.712 3.496-5.243 5.332-11.621 5.156-18.004-2.273 6.644-4.718 13.37-8.914 18.879-3.496 4.632-8.652 8.3-14.246 9.351-.785 10.223-1.398 17.04.262 29.012.875 6.293 5.508 12.586 6.644 18.879.786 4.629 1.223 9 .7 13.808 0 .262-.09.61-.176.872l-9.79 1.222-4.195-.87.614 4.456.523.262 1.223 15.555c0 .437.875 22.023.875 48.765l46.93 2.36a3.6 3.6 0 0 1 3.41 3.41l5.242 93.855a3.672 3.672 0 0 1-3.844 3.848l-58.555-3.059c-1.046 7.164-1.746 11.973-2.359 15.906-1.137 7.426-1.746 11.622-3.234 22.81 10.836 1.745 25.78 3.495 41.511 3.144 17.48-.438 31.813-2.446 41.512-4.282-2.621-21.847-8.215-69.914-9-88.09-1.05-23.511-16.258-116.058-16.43-117.019ZM134.43 313.914s-.086 0 0 0c1.925-1.137 3.41-2.012 4.023-2.535.434-.352 2.621-2.797 4.106-4.543.086-.09.086-.09.175-.176.086-.09.176-.176.262-.262.086-.09.176-.175.262-.261 0-.09.086-.09.086-.176.437-.524.789-.875.789-.875s2.707-.613 4.894-1.399c.438-.175.871-.347 1.223-.523.61-.351 1.137-.613 1.398-.96.086-.09.086-.09.086-.177.524-1.047.7-3.144-.699-4.195-.086-.086-.262-.176-.437-.262-.438-.261-1.047-.347-1.832-.437h-.79s.79-.262 1.75-.7c.087-.085.262-.085.348-.175.262-.086.438-.262.7-.348.175-.086.261-.176.437-.262.262-.175.523-.437.785-.613.09-.086.262-.262.352-.348.175-.175.261-.351.347-.523.09-.176.262-.437.262-.613.09-.438.176-.875.176-1.313v-.086c0-.613-.176-1.136-.61-1.574-.699-.871-2.187-1.484-4.894-1.398-.79 0-1.66.09-2.621.261-.266 0-.528.09-.875.09h-.262c-.262 0-.437.086-.7.086h-.175c-.262.09-.523.09-.785.176h-.176c-.351.086-.613.086-.96.176-2.36.437-4.981 1.047-7.516 1.57h-.09c-6.465 1.488-12.582 2.973-13.633 2.711-.438-.086-1.137-1.398.176-2.012.613-.261 18.527-7.254 21.5-8.039.172 0 .261-.086.433-.176h.09c.086-.086.262-.171.348-.171h.09c.086-.09.172-.176.261-.266l.086-.086c.09-.086.176-.176.262-.348 0 0 0-.09.09-.09.086-.085.172-.175.172-.347v-.09c.09-.086.09-.262.176-.438v-.085c.09-.262.175-.61.175-.875V280.18c0-.176-.086-.262-.086-.438v-.086c-.09-.176-.09-.261-.175-.437-.09-.176-.176-.262-.262-.352v-.086c-.176-.261-.438-.437-.7-.613h-.09c-.784-.523-2.007-.61-3.757-.172-6.465 1.66-27.613 6.727-27.613 6.727l-1.66.175s-4.547.262-8.567 6.993l-7.691 4.894s-6.727 10.574 0 20.535c6.73 9.875 14.86 1.489 14.86 1.489s8.124 4.02 10.398 3.32c1.746-.352 10.574-5.07 16.078-8.215-.086 0 0 0 0 0ZM95.367 90.977l-5.941 17.652-15.207-7.34c-3.582.785-7.254 1.223-11.012 1.223-28.14 0-50.863-22.809-50.863-50.95C12.344 23.422 35.066.7 63.207.7c28.14 0 50.95 22.809 50.95 50.95 0 15.816-7.34 30.062-18.79 39.328ZM47.301 51.3a6.825 6.825 0 0 0-6.817-6.817 6.825 6.825 0 0 0-6.816 6.817 6.825 6.825 0 0 0 6.816 6.816c3.758.086 6.817-2.972 6.817-6.816Zm22.46 0a6.825 6.825 0 0 0-6.816-6.817 6.825 6.825 0 0 0-6.816 6.817 6.825 6.825 0 0 0 6.816 6.816c3.758.086 6.817-2.972 6.817-6.816Zm23.071 0a6.825 6.825 0 0 0-6.816-6.817 6.825 6.825 0 0 0-6.817 6.817 6.825 6.825 0 0 0 6.817 6.816c3.757.086 6.816-2.972 6.816-6.816Zm261.129 157.304s-2.973-1.136-5.242 2.797c-2.36 3.934-3.672 6.993-3.672 6.993-.262.171-2.711.609-2.711.609l-.172.262c-.351-.61-.875-1.223-1.836-2.008-.523-.438-1.312-.79-2.273-1.137l6.906-3.844.086-.175s-14.508 1.746-18.18 1.308c-3.668-.433-13.805 6.73-17.476 9.703-3.672 2.969-5.243 4.63-7.602 9-.875 1.575-2.625 4.196-4.547 6.907l12.762 12.757c.785-1.222 1.308-2.011 1.308-2.097.176-.352 13.985-1.223 17.653-2.36 3.672-1.136 3.324-.613 5.855-3.234.09-.086.176-.262.352-.438 4.195-5.68 2.797-10.398 2.797-10.398 1.222-1.836 1.136-4.809 1.136-4.809s.262-.433.61-1.046v.085s7.43-1.398 8.828-3.496c1.398-2.183 5.594-11.707 5.766-13.28.175-1.575-.348-2.099-.348-2.099Zm0 0"/><path fill="#3022cd" d="m315.594 257.281-23.156-23.07a.68.68 0 0 0-.438-.176.672.672 0 0 0-.438.176l-21.585 22.285-23.422-66.855c-1.922-6.203-7.254-13.98-14.243-16.43a15.12 15.12 0 0 0-1.574-.438l-13.894-3.496-10.664-2.097-16.778-9.875c-.261-.086-.527-.086-.699 0-.176.175-.351.437-.262.613.172.96 15.38 93.508 16.43 117.191.434 10.313 2.445 30.239 4.543 49.551l-11.45 2.711c-.698.875-1.745 1.313-2.968 1.313l-2.012-.09-16.254 3.847-40.636-4.546c.086-.7.172-1.485.347-2.27l-18.175-.965c-1.664-.086-3.059-1.308-3.41-2.969-.961-.351-2.098-.699-3.06-1.136-.26-.086-.523-.176-.784-.352-1.489-.61-2.711-1.223-2.973-1.308h-.086l-.09.085c-.086.09-.086.09-.175.176-.086.086-.172.086-.262.176 0 0-.086 0-.086.086-.086.09-.176.176-.348.262-.09.09-.265.175-.437.261 0 0-.09 0-.09.09-.086.086-.262.176-.438.262 0 0-.086 0-.086.086-.347.176-.699.437-1.046.613 0 0-.09 0-.09.086-.176.09-.348.176-.524.262h-.086c-.175.09-.437.176-.699.262h-.09c-.172.09-.437.175-.61.175h-.175c-.437.09-.96.176-1.484.262H100.172c-.262 0-.524 0-.785-.086-2.098-.351-4.282-1.66-6.38-4.719-6.73-9.875 0-20.539 0-20.539l7.692-4.894c.262-.348.438-.7.7-1.047.085-.086.085-.176.171-.262.176-.262.438-.613.614-.875 0 0 0-.086.086-.086.265-.261.437-.523.699-.789.09-.086.09-.086.176-.172.175-.261.437-.437.613-.613l.086-.086c.261-.176.437-.437.613-.613.086-.086.086-.086.172-.176.176-.172.351-.262.527-.437l.086-.086c.176-.176.438-.262.613-.438.086 0 .086-.086.172-.086.176-.09.266-.176.438-.262.09 0 .09-.09.176-.09.175-.085.351-.171.523-.261.09 0 .09-.086.176-.086s.176-.086.262-.086c.085 0 .175-.09.175-.09.961-.348 1.575-.437 1.575-.437l1.66-.172s2.62-.613 6.289-1.488c-2.531.613-4.543 1.05-5.504 1.312l-4.633-57.156c-.172-2.184 1.66-4.02 3.848-3.934l32.16 1.664c0-26.742-.875-48.328-.875-48.765l-1.66-20.801c0-.262-.176-.438-.438-.524-.262-.086-.523-.086-.699.086-4.281 3.848-12.234 11.102-13.195 11.973l-36.793 13.46c-.438.524-11.45 6.118-13.196 21.935-1.398 13.37-3.933 98.054-3.582 105.132.262 6.38 6.028 26.657 17.301 27.356.7 0 1.313.086 1.922.086 1.137 0 2.273-.086 3.324-.176L83.31 370.28c-.09.176 0 .348.086.524.085.175.261.261.437.351 20.098 3.32 33.469 3.758 44.918 3.758.352 0 .613-.262.613-.527.524-3.582.961-6.64 1.309-9.348 9.879 1.57 23.074 3.145 37.144 3.145 1.485 0 2.97 0 4.457-.086 17.391-.438 31.809-2.45 41.598-4.286.785 6.383 1.223 10.403 1.313 10.575 0 .351.347.613.609.613h.09l.61-.086c20.448-1.75 26.655-2.273 42.034-6.644.176-.086.352-.172.438-.348a.542.542 0 0 0 0-.524l-27.617-59.253c.09-.875.265-4.98.351-6.204l1.047-20.539.613-10.836a573.612 573.612 0 0 1 11.012 23.247c3.672 8.214 10.836 13.546 19.664 14.593 1.047.09 2.098.176 3.145.176 6.293 0 12.148-2.445 15.468-6.555 4.809-6.03 32.774-43.609 33.036-43.957.086-.175.086-.613-.09-.789Zm-143.32 109.68c-15.56.348-30.59-1.313-41.337-3.149 1.485-10.746 2.094-14.94 3.231-22.195.527-3.32 1.05-7.168 1.836-12.586l40.726 4.543h.172l32.598-7.687c1.574 13.98 3.148 27.527 4.285 36.789-9.789 1.836-24.12 3.847-41.512 4.285ZM40.397 44.484a6.825 6.825 0 0 1 6.817 6.817 6.825 6.825 0 0 1-6.817 6.816 6.825 6.825 0 0 1-6.816-6.816 6.825 6.825 0 0 1 6.816-6.817Zm299.055-18.527a3.225 3.225 0 0 1 3.235 3.23c0 1.836-1.399 3.235-3.235 3.235-1.836 0-3.234-1.399-3.234-3.234a3.227 3.227 0 0 1 3.234-3.231Zm0 0"/><path fill="#ff6262" d="M360.863 25.957a3.225 3.225 0 0 1 3.235 3.23c0 1.836-1.399 3.235-3.235 3.235-1.832 0-3.23-1.399-3.23-3.234a3.224 3.224 0 0 1 3.23-3.231Zm-167.355 205.11a3.596 3.596 0 0 0-3.406-3.41l-79.09-4.02c-2.188-.086-4.02 1.746-3.848 3.933l4.633 57.153c3.844-.961 21.062-5.067 26.828-6.555 6.469-1.66 6.031 5.332 2.887 6.207-2.887.785-20.977 7.863-21.586 8.125-1.313.613-.614 1.926-.176 2.012 1.746.437 17.129-3.844 25.082-4.98 7.953-1.137 8.563 1.835 8.04 4.105-.524 2.273-5.071 3.672-5.071 3.672 4.633-.352 4.547 3.234 3.758 4.804-.786 1.575-7.688 3.059-7.688 3.059s-4.984 5.683-5.684 6.293c-2.269 1.922-17.652 10.226-20.011 10.926-.7.261-2.098 0-3.582-.524.347 1.66 1.66 2.883 3.406 2.969l76.73 4.02a3.67 3.67 0 0 0 3.848-3.844Zm152.152-19.141 3.059-1.66-.528.785c-1.222 2.012-2.097 3.847-2.796 5.156l-3.32 1.836-1.31-1.309c-.261-.265-.699-.437-1.136-.699l5.68-3.148c.086-.086.175-.086.261-.262l.09-.176c.086-.086.086-.262 0-.523Zm29.102-13.547-1.137 2.187-18.617 10.313c0-.09.09-.176.09-.266.261-1.922-.614-2.531-.79-2.62h-.085s-.438-.173-1.047-.173l18.789-10.402 2.36.09c.347.086.609.523.437.87ZM86.016 44.484a6.825 6.825 0 0 1 6.816 6.817 6.825 6.825 0 0 1-6.816 6.816 6.825 6.825 0 0 1-6.817-6.816c-.086-3.758 2.973-6.817 6.817-6.817Zm282.539 94.73v2.536l-.086 10.137c-.7.261-1.489.351-2.36.351H250.75c-3.234 0-5.941-1.922-7.164-4.718 10.922-24.645 26.39-32.774 29.535-34.258.176-.09.352-.176.527-.176h.086c1.75-.7 4.371-1.398 7.516-2.273 1.574-.438 4.719-1.223 7.953-1.922v.261c.176.785 1.399 4.895 3.758 8.567 2.71 4.105 6.031 6.289 9.613 6.289.613 0 1.313-.086 2.012-.172.172-.09.348-.176.434-.438l2.359-5.855.789 6.555c0 .261.262.523.523.523 1.047.176 2.098.262 3.145.262 13.285 0 23.773-13.195 24.21-14.856 3.231.785 6.99 1.836 10.661 2.797 12.41 3.406 20.711 14.156 21.5 26.219.262-.004.262.086.348.172Zm0 0"/><g clip-path="url(#b)"><path d="M144.832 288.742c-3.848.528-9.266 1.836-14.16 2.887-4.543 1.047-9.7 2.183-10.66 2.098-.086-.09-.176-.262-.086-.438 0-.09 0-.262.347-.351.786-.348 18.614-7.254 21.41-8.04 2.098-.613 3.06-3.144 2.536-5.07-.438-1.746-2.184-3.32-5.766-2.36-6.383 1.66-27.355 6.731-27.531 6.731l-1.66.176c-.348 0-4.98.523-9 7.164l-7.606 4.809c-.086.086-.172.086-.172.175-.09.086-6.906 11.098 0 21.235 2.098 3.144 4.63 4.808 7.426 5.07 3.848.348 7.082-2.187 8.13-3.148 1.835.875 6.991 3.234 9.698 3.234.352 0 .614 0 .79-.086 2.359-.7 17.913-9.09 20.187-11.012.61-.523 4.629-5.156 5.594-6.207 1.921-.437 7.078-1.66 7.949-3.32.527-1.137.789-2.883-.086-4.195-.348-.438-.785-.961-1.66-1.309 1.312-.7 2.797-1.75 3.058-3.148.348-1.57.086-2.797-.699-3.668-1.312-1.399-3.934-1.75-8.039-1.227Zm7.426 4.633c-.348 1.574-3.492 2.797-4.543 3.148-.613.172-24.293 5.418-28.926 5.856-.352 0-.613.348-.613.7 0 .347.351.608.613.608h.086c4.633-.437 27.527-5.593 29.016-5.94 1.484-.09 2.535.26 3.058.96.524.785.438 2.098.086 2.883-.437.789-4.02 2.012-7.254 2.71-.172 0-17.215 3.669-20.449 4.196-.348.086-.61.348-.523.785.086.348.347.524.613.524h.086c2.62-.438 13.98-2.797 18.613-3.758-1.836 2.098-3.934 4.371-4.281 4.719-2.184 1.836-17.567 10.136-19.75 10.75-1.399.437-6.64-1.66-9.79-3.235l-.085-.086c-.09-.086-9.528-5.418-10.574-17.043 0-.347-.352-.609-.7-.609-.351 0-.613.348-.613.7.961 10.312 7.953 15.902 10.399 17.476-1.133.96-3.844 2.797-6.817 2.62-2.36-.171-4.543-1.745-6.465-4.542-6.03-8.828-.789-18.442-.09-19.664l7.606-4.805c.086-.09.176-.09.176-.176 3.758-6.293 8.039-6.64 8.039-6.73l1.746-.172c.176-.09 21.148-5.07 27.617-6.73 2.274-.614 3.844-.09 4.195 1.398.348 1.398-.437 3.144-1.66 3.496-2.887.785-20.887 7.777-21.676 8.125-.785.352-1.222 1.05-1.132 1.75.086.7.523 1.309 1.046 1.484 1.047.262 4.81-.613 11.36-2.097 4.808-1.137 10.312-2.36 13.984-2.883 4.457-.613 6.203.086 6.903.785.875.875.964 1.66.699 2.797Zm202.84-82.762c-.176 1.75-4.547 11.45-5.856 13.547-1.398 2.188-7.777 3.496-9.09 3.758-.086.176-.261.352-.261.523 0 .7-.086 3.063-1.137 4.809.262 1.137.785 5.594-2.973 10.75-.086.176-.261.348-.347.523-2.098 2.184-2.36 2.274-4.282 2.883-.437.176-1.05.262-1.836.528-2.273.695-7.953 1.308-12.496 1.746-2.097.175-4.195.437-4.894.523-.262.352-.7 1.137-1.313 2.098l-.96-.961c.699-1.137 1.136-1.836 1.222-1.922.262-.438.262-.438 5.77-1.05 4.28-.434 10.136-.962 12.234-1.661.785-.262 1.398-.437 1.836-.523 1.746-.524 1.836-.524 3.758-2.536.086-.085.175-.171.261-.347 3.934-5.418 2.797-9.875 2.797-9.965-.086-.172 0-.348.086-.524 1.051-1.66 1.051-4.457 1.051-4.457 0-.085 0-.261.086-.347 0 0 .262-.438.613-.961.7-1.75.785-2.625.7-3.063-.262-1.922-5.68-3.32-8.305-4.02l-.438-.085c-3.844-1.05-7.164-1.05-9.176-.086-2.707 1.223-2.882 1.484-2.968 2.969 0 .699 1.308.789 3.406.96.7 0 1.398.09 2.187.176 3.059.352 8.04 1.836 8.301 1.836h.086s.09 0 .09.086l.086.09.086.086s0 .086.09.086V226.695c0 .086 0 .086-.09.086 0 0 0 .09-.086.09 0 .086-.086.086-.176.086h-.086c-.086 0-.086.09-.176.09h-.176c-.085 0-7.6-.875-11.097-.527-2.883.261-6.293 1.312-7.516 1.75.086.785.262 2.183.961 2.796.438.348.875.438 1.575.262 3.32-.7 7.078-.437 7.863-.351.613-.262 3.234-.961 5.594.09 2.62 1.132 6.554 5.765 6.73 6.027.262.261.176.699-.086.96a.669.669 0 0 1-.437.176c-.176 0-.352-.085-.528-.261 0-.086-3.844-4.633-6.203-5.594-2.183-.96-4.719 0-4.805 0l-6.207 2.273c.262.961 1.051 2.797 3.41 2.797h.087c2.972-.09 3.671-.523 3.843-.613a.485.485 0 0 1 .438-.262c.176 0 .437 0 .523.176l2.363 2.445c.172.176.262.528.086.79l-1.398 2.796c-.086.262-.352.348-.613.348-.086 0-.172 0-.262-.086-.348-.176-.438-.527-.262-.875l1.137-2.36-1.66-1.75c-.613.352-1.922.614-4.195.7h-.176c-3.496 0-4.63-2.883-4.805-4.457 0-.262.176-.61.438-.7l3.582-1.308c-1.313 0-2.883.086-4.372.438-1.046.261-2.007.085-2.707-.528-1.574-1.308-1.488-4.191-1.488-4.281 0-.262.176-.523.438-.61.175-.09 4.547-1.574 8.304-1.925.7-.086 1.57-.086 2.532-.086-.524-.086-1.047-.086-1.57-.086-2.274-.09-4.72-.262-4.634-2.274.086-2.273 1.047-2.882 3.672-4.105 3.059-1.398 7.164-.789 10.137 0l.438.086c4.457 1.223 8.824 2.535 9.261 5.066.09.7 0 1.664-.437 2.887 2.797-.613 6.554-1.75 7.344-3.059 1.398-2.097 5.503-11.625 5.68-13.023.085-.785-.09-1.137-.177-1.223-.437-.086-2.62-.437-4.37 2.536-2.27 3.843-3.583 6.902-3.583 6.992-.086.086-.175.261-.261.347-.262.176-1.137.352-2.707.614l-.09.086a.787.787 0 0 1-.61.261c-.265 0-.437-.175-.527-.347-.262-.528-.785-1.051-1.66-1.836-.262-.262-.871-.614-2.098-.961-.262-.09-.437-.262-.437-.524 0-.265.09-.527.351-.613l4.457-2.445c-4.457.433-12.586 1.222-15.293.96-3.234-.437-12.761 6.118-16.953 9.524-3.672 2.973-5.156 4.547-7.43 8.738-.875 1.665-2.71 4.286-4.632 7.082l-.961-.96a87.607 87.607 0 0 0 4.457-6.73c2.36-4.372 3.933-6.032 7.777-9.177 2.711-2.187 13.723-10.312 18.004-9.789 3.582.438 17.828-1.222 18.004-1.312.262 0 .523.09.61.265.175.172.175.524 0 .7l-.087.171-.261.262-5.68 3.149c.523.261.871.437 1.133.699.699.61 1.226 1.137 1.574 1.574.875-.176 1.836-.352 2.273-.437.348-.875 1.66-3.586 3.582-6.817 2.536-4.371 6.032-3.148 6.032-3.148h.086c.261-.348 1.136.261.875 2.183ZM209.938 88.965c-.176-2.797-.61-5.68-1.223-8.653-.262-2.535-.7-4.98-1.313-7.863-1.047-4.719-3.582-9.265-5.855-13.547-2.621-4.718-6.117-9.261-9.961-12.234-1.922-1.484-3.496-2.36-4.805-2.797-5.683-2.71-12.672-5.07-18.879-4.894-13.02.175-24.468 3.148-34.257 11.71-3.497 3.06-6.118 6.731-8.04 10.75-.175.438-.437.876-.613 1.31-8.3 17.741-16.34 45.097-14.332 86.956l28.664 6.203.613 4.719c0 .176.176.352.348.438L170 178.542l-10.313 15.379-16.515-14.942c-.262-.261-.7-.261-.961.086-.266.262-.266.7.086.961l17.043 15.47a.67.67 0 0 0 .433.175h.09c.176 0 .348-.09.438-.262l10.66-15.82 11.187 14.332c.176.176.348.262.524.262.176 0 .437-.172.523-.348l9.266-15.383c.172-.348.086-.7-.262-.871-.351-.176-.699-.09-.875.262l-8.738 14.594-10.84-13.895 17.566-20.977a.65.65 0 0 0 .176-.433c0-.266 0-.528-.086-.79 14.942-4.718 29.625-18.35 29.625-18.35l-.699-7.954c-1.223-13.371-5.07-29.363-8.39-41.074Zm-39.239 88.527-29.539-17.39-.523-3.934 8.914 1.926c2.183.437 4.281-1.051 4.543-3.235.523-4.808.09-9.175-.7-13.808-1.136-6.293-5.765-12.586-6.64-18.875-1.746-11.973-1.05-18.79-.262-29.016 5.594-1.047 10.75-4.719 14.246-9.351 4.282-5.594 6.64-12.32 8.914-18.875.172 6.293-1.664 12.757-5.156 18 2.531.351 5.156-.871 6.902-2.707 1.747-1.836 2.883-4.282 3.758-6.641 2.098-5.856 3.145-12.148 2.973-18.356 1.309 8.829.871 18.004-1.399 26.657 1.57-.614 3.32-.262 4.98-.086 1.661.172 3.583 0 4.634-1.227.699-.87.96-2.008 1.133-3.058 1.136-7.688.964-15.555-.61-23.157 2.274 4.02 4.543 8.125 5.942 12.496 1.398 4.372 2.011 9.176.875 13.633.699.785 2.097.614 2.796-.175.7-.786.961-1.836 1.047-2.883.352-3.844-.523-7.692-1.398-11.45 2.535 3.848 3.496 8.477 5.07 12.848.524 1.399 1.047 2.797 1.746 4.195 1.836 12.758 3.586 27.614 2.973 37.403-.7 11.625-5.504 18.265-9.438 21.847-4.02 3.672-7.953 4.895-8.476 5.07-.613.087-.527.177-.176 5.243l.348 4.281Zm-81.187-68.164c.086 0 .175 0 .261-.086.176-.09.352-.176.352-.437l5.855-17.48c11.973-9.79 18.79-24.294 18.79-39.763C114.77 23.16 91.61 0 63.207 0 34.805 0 11.645 23.16 11.645 51.563c0 28.402 23.16 51.558 51.562 51.558 3.672 0 7.34-.433 10.922-1.223l15.035 7.254c.086.09.172.176.348.176Zm-14.946-8.652c-.086-.086-.171-.086-.261-.086h-.176c-3.582.785-7.25 1.222-10.922 1.222-27.703 0-50.25-22.546-50.25-50.25 0-27.703 22.547-50.25 50.25-50.25s50.25 22.547 50.25 50.25c0 15.118-6.73 29.364-18.527 38.977-.086.086-.176.176-.176.262l-5.68 16.953Zm231.852 137.207c-.348 0-.7-.262-.7-.613 0-.348.262-.7.614-.7.438 0 10.313-.699 15.645 5.07.261.262.261.7 0 .962a.68.68 0 0 1-.438.175c-.176 0-.351-.09-.523-.175-4.895-5.418-14.422-4.72-14.598-4.72Zm-68.95-28.578-3.585 59.425c0 .352-.348.614-.61.614-.351 0-.613-.352-.613-.7l3.582-59.425c0-.352.352-.614.7-.614.261 0 .527.348.527.7ZM79.462 289.53a.672.672 0 0 1-.438.176c-.171 0-.347-.09-.523-.266-.262-.261-.176-.699.086-.96.09-.086 9.18-7.864 21.762-3.497.351.09.523.528.437.875-.086.352-.523.524-.875.438-11.797-4.195-20.36 3.144-20.45 3.234Zm21.324-88.094 6.64 77.692c0 .351-.26.7-.609.7h-.09a.596.596 0 0 1-.609-.61l-6.644-77.692c0-.351.265-.699.613-.699.437 0 .7.262.7.61Zm105.656-33.906c.352.614 8.13 15.38 7.692 22.11 0 .261-.176.437-.348.523l-4.894 2.711 4.457 3.234c.172.086.261.348.261.524-.09 2.097-1.222 52.262-6.379 66.855a.663.663 0 0 1-.613.438h-.176c-.347-.09-.523-.528-.437-.875 4.894-13.723 6.207-61.524 6.293-66.07l-4.98-3.668a.795.795 0 0 1-.262-.614c0-.262.175-.437.347-.523l5.508-3.059c.086-6.469-7.515-20.887-7.605-21.062-.172-.348-.086-.7.265-.875.262-.172.7 0 .871.351Zm-27.964-68.953c1.312 1.313 1.398 4.895-.524 5.07-1.312.172-1.75-1.312-1.922-2.449a3.46 3.46 0 0 1 .348-2.445c.262-.7.96-1.223 2.098-.176Zm17.914-2.883c1.312 1.309 1.398 4.895-.524 5.067-1.308.175-1.746-1.309-1.922-2.446a3.463 3.463 0 0 1 .352-2.445c.262-.613.96-1.226 2.094-.176Zm-14.418 23.246c.086-.351.523-.523.875-.351.086 0 5.156 1.926 8.125-.7 1.136-1.046.789-7.953-5.243-22.019-.175-.351 0-.7.352-.875.348-.176.7 0 .871.348 0 .09 2.098 5.07 3.758 10.312 3.496 11.012 1.66 12.672 1.137 13.196-1.485 1.398-3.407 1.75-5.157 1.75-2.273 0-4.28-.7-4.367-.786a.832.832 0 0 1-.351-.875Zm6.03 12.235c-3.233 0-5.593-1.223-5.679-1.223-.351-.176-.437-.523-.265-.875.175-.348.527-.437.875-.262.261.086 6.117 3.145 12.062-1.312.262-.262.7-.172.961.09.262.261.172.699-.09.96-2.797 2.008-5.504 2.622-7.863 2.622Zm-7.077-40.29c-.09.352-.438.528-.79.438-7.077-2.273-11.097 2.274-11.273 2.535-.086.176-.347.262-.523.262a.652.652 0 0 1-.438-.176c-.261-.261-.261-.61-.086-.96.086-.087 4.805-5.419 12.672-2.883.348.085.524.437.438.785Zm7.863-.437c-.262-.261-.262-.61-.086-.96.172-.173 3.668-4.196 9.875-3.497.348 0 .61.352.61.7 0 .351-.348.613-.7.613-5.504-.614-8.562 2.882-8.738 3.058-.086.176-.348.262-.523.262-.176 0-.352 0-.438-.176ZM319.965 42.91c-4.195 0-8.13 1.047-11.535 2.883-1.575-.348-3.235-.348-4.72.7-2.62 1.75-4.546 6.554-5.769 10.136-.523 1.137-1.046 2.36-1.398 3.586-7.602 18.176-9.086 29.625-4.543 33.992 1.746 1.664 5.066 2.625 10.05 2.973-.35 2.36-.698 4.98-.96 7.168-10.84 2.445-11.8 3.757-11.887 4.457v.261c.176.786 1.399 4.895 3.758 8.563 2.71 4.11 6.031 6.293 9.613 6.293.613 0 1.313-.086 2.012-.176.172-.086.348-.172.434-.437l2.359-5.852.789 6.55c0 .266.262.528.523.528 1.047.172 2.098.262 3.145.262 13.285 0 23.773-13.195 24.21-14.86.087-.523.349-1.832-11.273-5.68.086-1.308.172-2.796.348-4.28.176-2.883.438-5.942.613-8.829 10.66-2.707 18.614-12.32 18.614-23.77.175-13.456-10.836-24.468-24.383-24.468Zm-15.992 79.528c-8.914 1.484-12.934-11.801-13.457-13.461.87-.7 5.765-2.184 10.312-3.23.086 5.589 4.543 8.562 6.117 9.437Zm30.937-12.672c-1.05 1.836-11.887 15.293-25.344 13.543l-.96-8.04c2.53-.261 11.535-1.835 15.992-9.699 4.457 1.485 9.437 3.407 10.312 4.196Zm-4.11-26.22c-.96 1.661-2.882 2.884-5.066 3.321a.917.917 0 0 0-.527.438l-.434 1.398v.176c-.265 3.234-.527 7.34-.789 11.012-.175 1.832-.261 3.406-.347 4.629-4.719 8.742-15.73 9.44-15.82 9.44h-.087c-1.312-.698-5.156-3.147-5.418-7.952.176-2.098.61-5.246 1.223-9.438 0-.175 0-.351-.176-.527-.171-.172-.261-.262-.437-.262-4.98-.261-8.3-1.136-9.875-2.62-2.707-2.536-4.106-9.614 3.148-28.317 2.36.261 3.582 1.836 3.668 1.926.09.171.352.261.528.261.171 0 .261 0 .347-.09.262-.171.352-.609.176-.96-.086-.086-1.484-1.922-4.195-2.36.437-1.047.875-2.184 1.312-3.32l6.817-7.778c4.105 5.942 11.535 16.079 18.351 22.372.176.175.438.175.61.175 1.398-.437 6.03-1.312 7.515 3.145.528 2.012.352 3.758-.523 5.332Zm-24.905-11.448c.699-.61 1.05-.176 1.222.261.176.438.176.961.09 1.399-.176.613-.527 1.488-1.227 1.312-1.046-.261-.87-2.273-.085-2.972Zm-9.614.96c-1.136-.261-.875-2.269-.086-2.968.7-.613 1.047-.176 1.223.262.176.437.176.96.086 1.398-.172.61-.524 1.484-1.223 1.309Zm4.547 11.188c-1.137 0-2.535-.262-3.496-1.312-1.926-2.008 2.36-10.836 3.668-13.543.176-.352.523-.438.875-.262.348.172.438.523.262.871-2.621 5.07-4.805 11.102-3.934 12.063 1.488 1.57 4.285.699 4.285.699.348-.09.7.086.785.437.086.348-.086.7-.437.785 0 0-.875.262-2.008.262Zm6.727 2.184c.261.261.261.699 0 .96-.176.176-2.797 2.712-6.555 2.712-.871 0-1.746-.176-2.707-.438-.352-.086-.527-.523-.438-.875.086-.348.524-.523.875-.434.434.172.786.262 1.223.262 2.445.348 4.457-.613 5.68-1.398.699-.438 1.137-.875 1.137-.875.085-.176.523-.176.785.086Zm4.894-17.567c.176.266.176.7-.176.965-.086.086-.261.086-.347.086-.176 0-.438-.086-.524-.262 0 0-.351-.437-.875-.789-.785-.61-2.097-1.222-3.847-1.133-.434 0-.871.086-1.309.172-.351.09-.7-.086-.785-.523-.09-.348.086-.7.523-.785 4.72-1.137 7.254 2.097 7.34 2.27Zm53.66-48.414H250.75c-4.719 0-8.563 3.848-8.563 8.567V144.37c0 4.719 3.844 8.566 8.563 8.566h115.36c4.718 0 8.562-3.847 8.562-8.566V29.016c-.086-4.72-3.844-8.567-8.563-8.567ZM250.75 21.762h115.36c3.93 0 7.253 3.234 7.253 7.254v6.117H243.496v-6.117a7.237 7.237 0 0 1 7.254-7.254Zm115.36 129.777H250.75c-3.934 0-7.254-3.234-7.254-7.254V36.355h129.777v107.93c0 4.02-3.234 7.254-7.164 7.254ZM163.53 125.758c-.172.347-.261.699-.347 1.137v.699a25.014 25.014 0 0 1-12.672-6.117c.347-.438.785-.961 1.136-1.489 3.32 2.973 7.516 4.985 11.883 5.77Zm0 0"/></g><path fill="#ffd600" d="M350.027 25.957a3.225 3.225 0 0 1 3.235 3.23c0 1.836-1.399 3.235-3.235 3.235-1.836 0-3.234-1.399-3.234-3.234a3.227 3.227 0 0 1 3.234-3.231ZM161.262 39.238l-7.43 1.223c-23.508 14.684-22.371 46.844-21.762 54.621a16.66 16.66 0 0 0-11.011 16.691c.527 9.176 8.39 16.258 17.656 15.73 9.262-.523 16.254-8.386 15.73-17.651-.437-7.692-6.03-13.809-13.195-15.38-5.246-39.066 20.012-55.234 20.012-55.234Zm-98.317 5.246a6.825 6.825 0 0 1 6.817 6.817 6.825 6.825 0 0 1-6.817 6.816 6.825 6.825 0 0 1-6.816-6.816c-.09-3.758 2.969-6.817 6.816-6.817Zm107.668 86.692-4.11-.438c-2.007-.175-3.495-2.008-3.233-3.933.175-2.008 2.011-3.496 3.933-3.23l4.11.433c2.007.176 3.496 2.012 3.23 3.933-.172 2.012-1.922 3.41-3.93 3.235Zm0 0"/></svg>